HIERARCHY
ROOT Hips
{
    OFFSET 0.000000 0.000000 0.000000
    CHANNELS 6 Xposition Yposition Zposition Zrotation Xrotation Yrotation
    JOINT Spine
    {
        OFFSET -0.000000 7.925200 0.000000
        CHANNELS 3 Zrotation Xrotation Yrotation
        JOINT Spine1
        {
            OFFSET -0.000000 23.364719 0.000000
            CHANNELS 3 Zrotation Xrotation Yrotation
            JOINT Neck
            {
                OFFSET -0.000000 23.268766 2.115342
                CHANNELS 3 Zrotation Xrotation Yrotation
                JOINT Head
                {
                    OFFSET -0.000000 13.530829 -1.932976
                    CHANNELS 3 Zrotation Xrotation Yrotation
                    End Site
                    {
                        OFFSET -0.000000 24.162195 0.000000
                    }
                }
            }
            JOINT LeftShoulder
            {
                OFFSET 3.858291 22.792089 -0.033814
                CHANNELS 3 Zrotation Xrotation Yrotation
                JOINT LeftArm
                {
                    OFFSET 7.057024 0.000000 0.000000
                    CHANNELS 3 Zrotation Xrotation Yrotation
                    JOINT LeftForeArm
                    {
                        OFFSET 34.734173 0.000000 0.000000
                        CHANNELS 3 Zrotation Xrotation Yrotation
                        JOINT LeftHand
                        {
                            OFFSET 23.943203 0.000000 0.000000
                            CHANNELS 3 Zrotation Xrotation Yrotation
                            End Site
                            {
                                OFFSET 14.497317 0.000000 0.000000
                            }
                        }
                    }
                }
            }
            JOINT RightShoulder
            {
                OFFSET -3.868823 22.792089 -0.033814
                CHANNELS 3 Zrotation Xrotation Yrotation
                JOINT RightArm
                {
                    OFFSET -7.057024 0.000000 0.000000
                    CHANNELS 3 Zrotation Xrotation Yrotation
                    JOINT RightForeArm
                    {
                        OFFSET -34.734173 0.000000 0.000000
                        CHANNELS 3 Zrotation Xrotation Yrotation
                        JOINT RightHand
                        {
                            OFFSET -23.943203 0.000000 0.000000
                            CHANNELS 3 Zrotation Xrotation Yrotation
                            End Site
                            {
                                OFFSET -14.497317 0.000000 0.000000
                            }
                        }
                    }
                }
            }
        }
    }
    JOINT LeftUpLeg
    {
        OFFSET 9.664878 0.000000 0.000000
        CHANNELS 3 Zrotation Xrotation Yrotation
        JOINT LeftLeg
        {
            OFFSET -0.000000 -38.728706 0.000000
            CHANNELS 3 Zrotation Xrotation Yrotation
            JOINT LeftFoot
            {
                OFFSET -0.000000 -40.242161 0.000000
                CHANNELS 3 Zrotation Xrotation Yrotation
                JOINT LeftToeBase
                {
                    OFFSET -0.000000 -6.282171 14.497317
                    CHANNELS 3 Zrotation Xrotation Yrotation
                    End Site
                    {
                        OFFSET -0.000000 0.000000 3.865951
                    }
                }
            }
        }
    }
    JOINT RightUpLeg
    {
        OFFSET -9.664878 0.000000 0.000000
        CHANNELS 3 Zrotation Xrotation Yrotation
        JOINT RightLeg
        {
            OFFSET -0.000000 -38.728706 0.000000
            CHANNELS 3 Zrotation Xrotation Yrotation
            JOINT RightFoot
            {
                OFFSET -0.000000 -40.242161 0.000000
                CHANNELS 3 Zrotation Xrotation Yrotation
                JOINT RightToeBase
                {
                    OFFSET -0.000000 -6.282171 14.497317
                    CHANNELS 3 Zrotation Xrotation Yrotation
                    End Site
                    {
                        OFFSET -0.000000 0.000000 3.865951
                    }
                }
            }
        }
    }
}
MOTION
Frames:    9
Frame Time:    0.008333
122.724701    88.856300    2.537565    -0.373205    -0.910682    89.097809    2.432774    -3.095793    -0.355181    -1.355351    1.564699    -0.402562    -0.968308    19.878237    4.337533    -3.515012    -2.593799    3.901806    15.430107    -1.053084    1.909035    -13.176685    3.178217    -9.164946    3.773303    -1.053903    -1.335318    -3.300153    -0.971690    -1.329120    -13.349828    0.129740    4.799279    11.829727    3.855087    8.028407    -2.566839    -1.128328    1.436095    2.249729    -1.052177    2.243288    2.988426    2.804629    0.163916    -2.193711    1.335494    -4.352342    -0.818872    -4.741030    10.846825    0.000000    0.000000    0.000000    2.153157    0.338776    1.993504    -1.334715    5.992976    0.265154    1.004027    -5.979366    -14.054647    0.000000    0.000000    0.000000    
122.727623    88.855156    2.537957    -0.377954    -0.907293    89.101364    2.395890    -3.103369    -0.342436    -1.299258    1.570519    -0.389576    -0.923005    19.858858    4.314343    -3.591426    -2.574813    3.867420    15.437075    -0.955195    1.934794    -13.221150    3.074979    -9.269022    3.798999    -1.040608    -1.318024    -3.457084    -0.956319    -1.346426    -13.362350    0.129755    4.749394    11.801037    3.963555    8.025570    -2.580642    -1.172282    1.459793    2.226075    -1.095836    2.245772    2.986745    2.804856    0.151220    -2.196110    1.329091    -4.361821    -0.827414    -4.743719    10.866963    0.000000    0.000000    0.000000    2.148735    0.333553    1.993624    -1.332002    5.992205    0.226467    0.982122    -5.975032    -14.009737    0.000000    0.000000    0.000000    
122.737885    88.853523    2.539957    -0.369917    -0.898926    89.093323    2.379630    -3.089855    -0.329974    -1.283316    1.534463    -0.377155    -0.997211    19.861946    4.297721    -3.470505    -2.527554    3.868825    15.405304    -1.020061    1.846603    -13.200700    3.179855    -9.179150    3.796581    -1.059021    -1.340062    -3.465988    -0.973930    -1.344244    -13.346715    0.166542    4.755886    11.794563    3.853923    8.015313    -2.575559    -1.111505    1.441370    2.203194    -1.035924    2.246330    2.979152    2.827587    0.161729    -2.197561    1.317187    -4.346623    -0.823651    -4.736054    10.851868    0.000000    0.000000    0.000000    2.142559    0.353377    2.023427    -1.365088    5.973757    0.301578    1.039783    -5.972599    -14.047050    0.000000    0.000000    0.000000    
122.732941    88.851280    2.539367    -0.377105    -0.900904    89.104233    2.392141    -3.104309    -0.337442    -1.301889    1.572744    -0.384523    -0.937559    19.859520    4.314888    -3.570418    -2.593365    3.870360    15.422273    -0.946142    1.929498    -13.211925    3.093157    -9.278467    3.809098    -1.054255    -1.345046    -3.494380    -0.968878    -1.334381    -13.355262    0.135618    4.728053    11.787528    4.003341    8.023789    -2.584316    -1.183272    1.469490    2.214719    -1.107113    2.228122    2.977122    2.806565    0.160981    -2.184722    1.333871    -4.371832    -0.829789    -4.747925    10.862548    0.000000    0.000000    0.000000    2.144542    0.337915    1.999517    -1.332872    5.994795    0.227349    0.987698    -5.991826    -14.026914    0.000000    0.000000    0.000000    
122.737694    88.852196    2.539438    -0.379868    -0.893145    89.090744    2.377322    -3.115180    -0.317793    -1.297115    1.575016    -0.364658    -0.911449    19.880457    4.304276    -3.581232    -2.614135    3.857619    15.434108    -0.936366    1.899653    -13.229375    3.083690    -9.283914    3.811838    -1.052847    -1.351280    -3.486091    -0.967320    -1.334046    -13.335589    0.122449    4.730643    11.779825    3.992193    7.985288    -2.579319    -1.170750    1.468969    2.204511    -1.094636    2.240288    2.969265    2.816249    0.158550    -2.186896    1.324272    -4.337641    -0.676254    -4.674642    10.809415    0.000000    0.000000    0.000000    2.135226    0.334423    2.019652    -1.332781    6.004566    0.242674    0.996205    -6.000536    -14.048511    0.000000    0.000000    0.000000    
122.724892    88.844070    2.527801    -0.409013    -0.845123    89.040009    2.297910    -3.106313    -0.288229    -1.215274    1.523195    -0.334360    -0.966251    19.893755    4.293401    -3.569420    -2.607946    3.846389    15.368859    -1.011694    1.824524    -13.224656    3.155871    -9.197081    3.811419    -1.056153    -1.377962    -3.448900    -0.970883    -1.310071    -13.386181    0.146271    4.723520    11.783201    3.979747    7.983482    -2.579229    -1.171842    1.463870    2.229111    -1.095317    2.243317    2.898685    2.786203    0.208398    -2.168005    1.319816    -4.327465    -0.822728    -4.737811    10.841432    0.000000    0.000000    0.000000    2.067265    0.269466    2.032818    -1.312830    6.044572    0.288270    0.953019    -6.043927    -14.044250    0.000000    0.000000    0.000000    
122.722969    88.841301    2.530982    -0.406799    -0.857220    89.048958    2.365209    -3.110126    -0.308379    -1.314838    1.544589    -0.355062    -0.942146    19.892063    4.312179    -3.577639    -2.640115    3.864464    15.407078    -0.946337    1.915756    -13.219278    3.081783    -9.272125    3.813372    -1.050218    -1.378384    -3.469144    -0.965409    -1.288325    -13.356912    0.131042    4.753556    11.805712    3.949860    7.988795    -2.578820    -1.169280    1.457266    2.228053    -1.092762    2.250022    2.916510    2.781872    0.201673    -2.170913    1.326550    -4.344775    -0.662813    -4.679695    10.815432    0.000000    0.000000    0.000000    2.081454    0.272003    2.038332    -1.349660    6.038332    0.349762    1.030985    -6.044015    -14.053128    0.000000    0.000000    0.000000    
122.738945    88.849037    2.544349    -0.381359    -0.906502    89.101974    2.386130    -3.117238    -0.325487    -1.284105    1.580345    -0.372740    -1.026489    19.824059    4.289277    -3.417826    -2.552502    3.867318    15.420785    -0.955708    1.906892    -13.239188    3.094029    -9.286139    3.810909    -1.066429    -1.381354    -3.470375    -0.981227    -1.294680    -13.375818    0.112199    4.734908    11.821719    3.965699    7.973299    -2.572063    -1.177167    1.466329    2.252261    -1.099904    2.257886    2.985793    2.813314    0.172232    -2.192786    1.317899    -4.336770    -0.825833    -4.744867    10.834391    0.000000    0.000000    0.000000    2.151236    0.340397    1.987916    -1.334807    5.985487    0.217654    0.996925    -5.989685    -13.996803    0.000000    0.000000    0.000000    
122.745468    88.851570    2.544520    -0.382727    -0.900766    89.087410    2.385868    -3.117367    -0.313789    -1.299240    1.566945    -0.361114    -0.974947    19.854458    4.288558    -3.473190    -2.571696    3.858363    15.423602    -0.938698    1.890375    -13.244458    3.079895    -9.278483    3.823840    -1.061020    -1.406453    -3.475660    -0.975897    -1.257660    -13.351501    0.117805    4.709213    11.816587    3.968467    7.988658    -2.572153    -1.176843    1.469043    2.272531    -1.099080    2.258025    2.975136    2.824359    0.173493    -2.180457    1.311813    -4.334128    -0.743221    -4.709637    10.826083    0.000000    0.000000    0.000000    2.147204    0.340077    1.996332    -1.339201    5.989772    0.226943    1.012971    -5.991181    -14.001173    0.000000    0.000000    0.000000    
